{
    "asset" : {
        "generator" : "Khronos glTF Blender I/O v3.3.32",
        "version" : "2.0"
    },
    "extensionsUsed" : [
        "KHR_materials_specular",
        "KHR_materials_ior"
    ],
    "scene" : 0,
    "scenes" : [
        {
            "name" : "Scene",
            "nodes" : [
                0,
                1
            ]
        }
    ],
    "nodes" : [
        {
            "mesh" : 0,
            "name" : "Donut"
        },
        {
            "mesh" : 1,
            "name" : "Icing"
        }
    ],
    "materials" : [
        {
            "doubleSided" : true,
            "extensions" : {
                "KHR_materials_specular" : {
                    "specularColorFactor" : [
                        0.8309087275661494,
                        0.8309087275661494,
                        0.8309087275661494
                    ]
                },
                "KHR_materials_ior" : {
                    "ior" : 1.4500000476837158
                }
            },
            "name" : "Material.002",
            "pbrMetallicRoughness" : {
                "baseColorFactor" : [
                    0.8000000715255737,
                    0.3322102427482605,
                    0.08448204398155212,
                    1
                ],
                "metallicFactor" : 0.15748031437397003,
                "roughnessFactor" : 0.4724409580230713
            }
        },
        {
            "doubleSided" : true,
            "name" : "Material.001",
            "pbrMetallicRoughness" : {
                "baseColorFactor" : [
                    0.7264484167098999,
                    0.15123894810676575,
                    0.8000000715255737,
                    1
                ],
                "metallicFactor" : 0.5039370059967041,
                "roughnessFactor" : 0.29527556896209717
            }
        }
    ],
    "meshes" : [
        {
            "name" : "Torus.001",
            "primitives" : [
                {
                    "attributes" : {
                        "POSITION" : 0,
                        "NORMAL" : 1,
                        "TEXCOORD_0" : 2
                    },
                    "indices" : 3,
                    "material" : 0
                }
            ]
        },
        {
            "name" : "Torus.002",
            "primitives" : [
                {
                    "attributes" : {
                        "POSITION" : 4,
                        "NORMAL" : 5,
                        "TEXCOORD_0" : 6
                    },
                    "indices" : 7,
                    "material" : 1
                }
            ]
        }
    ],
    "accessors" : [
        {
            "bufferView" : 0,
            "componentType" : 5126,
            "count" : 2673,
            "max" : [
                0.04663173854351044,
                0.019887814298272133,
                0.046764735132455826
            ],
            "min" : [
                -0.04633283615112305,
                -0.020456938073039055,
                -0.046582091599702835
            ],
            "type" : "VEC3"
        },
        {
            "bufferView" : 1,
            "componentType" : 5126,
            "count" : 2673,
            "type" : "VEC3"
        },
        {
            "bufferView" : 2,
            "componentType" : 5126,
            "count" : 2673,
            "type" : "VEC2"
        },
        {
            "bufferView" : 3,
            "componentType" : 5123,
            "count" : 15360,
            "type" : "SCALAR"
        },
        {
            "bufferView" : 4,
            "componentType" : 5126,
            "count" : 9600,
            "max" : [
                0.04648420587182045,
                0.021753545850515366,
                0.04585716128349304
            ],
            "min" : [
                -0.048251524567604065,
                -0.003002609359100461,
                -0.04842805117368698
            ],
            "type" : "VEC3"
        },
        {
            "bufferView" : 5,
            "componentType" : 5126,
            "count" : 9600,
            "type" : "VEC3"
        },
        {
            "bufferView" : 6,
            "componentType" : 5126,
            "count" : 9600,
            "type" : "VEC2"
        },
        {
            "bufferView" : 7,
            "componentType" : 5123,
            "count" : 57264,
            "type" : "SCALAR"
        }
    ],
    "bufferViews" : [
        {
            "buffer" : 0,
            "byteLength" : 32076,
            "byteOffset" : 0,
            "target" : 34962
        },
        {
            "buffer" : 0,
            "byteLength" : 32076,
            "byteOffset" : 32076,
            "target" : 34962
        },
        {
            "buffer" : 0,
            "byteLength" : 21384,
            "byteOffset" : 64152,
            "target" : 34962
        },
        {
            "buffer" : 0,
            "byteLength" : 30720,
            "byteOffset" : 85536,
            "target" : 34963
        },
        {
            "buffer" : 0,
            "byteLength" : 115200,
            "byteOffset" : 116256,
            "target" : 34962
        },
        {
            "buffer" : 0,
            "byteLength" : 115200,
            "byteOffset" : 231456,
            "target" : 34962
        },
        {
            "buffer" : 0,
            "byteLength" : 76800,
            "byteOffset" : 346656,
            "target" : 34962
        },
        {
            "buffer" : 0,
            "byteLength" : 114528,
            "byteOffset" : 423456,
            "target" : 34963
        }
    ],
    "buffers" : [
        {
            "byteLength" : 537984,
            "uri" : "data:application/octet-stream;base64,"
        }
    ]
}
